<svg xmlns="http://www.w3.org/2000/svg" viewBox="0 0 400 200" fill="none">
  <!-- Infinity symbol -->
  <path d="M140 100C140 68 115 45 85 45C55 45 30 68 30 100C30 132 55 155 85 155C107 155 125 142 135 125" stroke="#6B6BF0" stroke-width="28" stroke-linecap="round" fill="none"/>
  <path d="M260 100C260 132 285 155 315 155C345 155 370 132 370 100C370 68 345 45 315 45C293 45 275 58 265 75" stroke="#6B6BF0" stroke-width="28" stroke-linecap="round" fill="none"/>
  <path d="M135 125C155 90 175 75 200 75C225 75 245 90 265 75" stroke="#6B6BF0" stroke-width="28" stroke-linecap="round" fill="none"/>
  <path d="M135 75C155 110 175 125 200 125C225 125 245 110 265 125" stroke="#6B6BF0" stroke-width="28" stroke-linecap="round" fill="none"/>
  
  <!-- Gear (gerigi) in left loop -->
  <circle cx="85" cy="100" r="22" fill="#FFCF4A"/>
  <circle cx="85" cy="100" r="10" fill="#151624"/>
  <!-- Gear teeth -->
  <g fill="#FFCF4A">
    <rect x="79" y="72" width="12" height="10" rx="2"/>
    <rect x="79" y="118" width="12" height="10" rx="2"/>
    <rect x="57" y="94" width="10" height="12" rx="2"/>
    <rect x="103" y="94" width="10" height="12" rx="2"/>
    <rect x="63" y="78" width="10" height="10" rx="2" transform="rotate(-45 68 83)"/>
    <rect x="97" y="78" width="10" height="10" rx="2" transform="rotate(45 102 83)"/>
    <rect x="63" y="112" width="10" height="10" rx="2" transform="rotate(45 68 117)"/>
    <rect x="97" y="112" width="10" height="10" rx="2" transform="rotate(-45 102 117)"/>
  </g>
  
  <!-- Shooting star (speedometer + bintang) in right loop -->
  <line x1="290" y1="110" x2="340" y2="70" stroke="url(#starGrad)" stroke-width="8" stroke-linecap="round"/>
  <defs>
    <linearGradient id="starGrad" x1="290" y1="110" x2="340" y2="70">
      <stop offset="0%" stop-color="#FFCF4A" stop-opacity="0.3"/>
      <stop offset="100%" stop-color="#FFCF4A"/>
    </linearGradient>
  </defs>
  
  <!-- Star -->
  <polygon points="345,60 348,68 356,68 350,73 352,81 345,76 338,81 340,73 334,68 342,68" fill="#FFCF4A"/>
  <!-- Small star -->
  <polygon points="330,55 331,58 334,58 332,60 333,63 330,61 327,63 328,60 326,58 329,58" fill="#FFCF4A"/>
</svg>
